<svg xmlns="http://www.w3.org/2000/svg" width="1440" height="900" viewBox="0 0 1440 900">
  <defs>
    <linearGradient id="bg" x1="0%" y1="0%" x2="100%" y2="100%">
      <stop offset="0%" style="stop-color:#e8ebf2;stop-opacity:1" />
      <stop offset="50%" style="stop-color:#dde2ee;stop-opacity:1" />
      <stop offset="100%" style="stop-color:#e0e5f0;stop-opacity:1" />
    </linearGradient>
    <linearGradient id="accent1" x1="0%" y1="0%" x2="100%" y2="100%">
      <stop offset="0%" style="stop-color:#daa520;stop-opacity:0.15" />
      <stop offset="100%" style="stop-color:#daa520;stop-opacity:0.05" />
    </linearGradient>
    <linearGradient id="accent2" x1="100%" y1="0%" x2="0%" y2="100%">
      <stop offset="0%" style="stop-color:#1f2937;stop-opacity:0.08" />
      <stop offset="100%" style="stop-color:#1f2937;stop-opacity:0.03" />
    </linearGradient>
  </defs>
  <rect width="1440" height="900" fill="url(#bg)"/>
  <!-- Subtle circles -->
  <circle cx="200" cy="150" r="300" fill="url(#accent1)"/>
  <circle cx="1200" cy="700" r="350" fill="url(#accent1)"/>
  <circle cx="700" cy="400" r="250" fill="url(#accent2)"/>
  <!-- Decorative dots grid -->
  <g fill="#daa520" opacity="0.12">
    <circle cx="100" cy="100" r="3"/><circle cx="200" cy="100" r="3"/><circle cx="300" cy="100" r="3"/><circle cx="400" cy="100" r="3"/><circle cx="500" cy="100" r="3"/><circle cx="600" cy="100" r="3"/><circle cx="700" cy="100" r="3"/><circle cx="800" cy="100" r="3"/><circle cx="900" cy="100" r="3"/><circle cx="1000" cy="100" r="3"/><circle cx="1100" cy="100" r="3"/><circle cx="1200" cy="100" r="3"/><circle cx="1300" cy="100" r="3"/>
    <circle cx="100" cy="200" r="3"/><circle cx="200" cy="200" r="3"/><circle cx="300" cy="200" r="3"/><circle cx="400" cy="200" r="3"/><circle cx="500" cy="200" r="3"/><circle cx="600" cy="200" r="3"/><circle cx="700" cy="200" r="3"/><circle cx="800" cy="200" r="3"/><circle cx="900" cy="200" r="3"/><circle cx="1000" cy="200" r="3"/><circle cx="1100" cy="200" r="3"/><circle cx="1200" cy="200" r="3"/><circle cx="1300" cy="200" r="3"/>
    <circle cx="100" cy="300" r="3"/><circle cx="200" cy="300" r="3"/><circle cx="300" cy="300" r="3"/><circle cx="400" cy="300" r="3"/><circle cx="500" cy="300" r="3"/><circle cx="600" cy="300" r="3"/><circle cx="700" cy="300" r="3"/><circle cx="800" cy="300" r="3"/><circle cx="900" cy="300" r="3"/><circle cx="1000" cy="300" r="3"/><circle cx="1100" cy="300" r="3"/><circle cx="1200" cy="300" r="3"/><circle cx="1300" cy="300" r="3"/>
    <circle cx="100" cy="400" r="3"/><circle cx="200" cy="400" r="3"/><circle cx="300" cy="400" r="3"/><circle cx="400" cy="400" r="3"/><circle cx="500" cy="400" r="3"/><circle cx="600" cy="400" r="3"/><circle cx="700" cy="400" r="3"/><circle cx="800" cy="400" r="3"/><circle cx="900" cy="400" r="3"/><circle cx="1000" cy="400" r="3"/><circle cx="1100" cy="400" r="3"/><circle cx="1200" cy="400" r="3"/><circle cx="1300" cy="400" r="3"/>
    <circle cx="100" cy="500" r="3"/><circle cx="200" cy="500" r="3"/><circle cx="300" cy="500" r="3"/><circle cx="400" cy="500" r="3"/><circle cx="500" cy="500" r="3"/><circle cx="600" cy="500" r="3"/><circle cx="700" cy="500" r="3"/><circle cx="800" cy="500" r="3"/><circle cx="900" cy="500" r="3"/><circle cx="1000" cy="500" r="3"/><circle cx="1100" cy="500" r="3"/><circle cx="1200" cy="500" r="3"/><circle cx="1300" cy="500" r="3"/>
    <circle cx="100" cy="600" r="3"/><circle cx="200" cy="600" r="3"/><circle cx="300" cy="600" r="3"/><circle cx="400" cy="600" r="3"/><circle cx="500" cy="600" r="3"/><circle cx="600" cy="600" r="3"/><circle cx="700" cy="600" r="3"/><circle cx="800" cy="600" r="3"/><circle cx="900" cy="600" r="3"/><circle cx="1000" cy="600" r="3"/><circle cx="1100" cy="600" r="3"/><circle cx="1200" cy="600" r="3"/><circle cx="1300" cy="600" r="3"/>
    <circle cx="100" cy="700" r="3"/><circle cx="200" cy="700" r="3"/><circle cx="300" cy="700" r="3"/><circle cx="400" cy="700" r="3"/><circle cx="500" cy="700" r="3"/><circle cx="600" cy="700" r="3"/><circle cx="700" cy="700" r="3"/><circle cx="800" cy="700" r="3"/><circle cx="900" cy="700" r="3"/><circle cx="1000" cy="700" r="3"/><circle cx="1100" cy="700" r="3"/><circle cx="1200" cy="700" r="3"/><circle cx="1300" cy="700" r="3"/>
    <circle cx="100" cy="800" r="3"/><circle cx="200" cy="800" r="3"/><circle cx="300" cy="800" r="3"/><circle cx="400" cy="800" r="3"/><circle cx="500" cy="800" r="3"/><circle cx="600" cy="800" r="3"/><circle cx="700" cy="800" r="3"/><circle cx="800" cy="800" r="3"/><circle cx="900" cy="800" r="3"/><circle cx="1000" cy="800" r="3"/><circle cx="1100" cy="800" r="3"/><circle cx="1200" cy="800" r="3"/><circle cx="1300" cy="800" r="3"/>
  </g>
  <!-- Soft wave shapes -->
  <path d="M0 600 Q 360 500, 720 580 T 1440 560 L1440 900 L0 900 Z" fill="#daa520" opacity="0.07"/>
  <path d="M0 700 Q 360 620, 720 680 T 1440 650 L1440 900 L0 900 Z" fill="#1f2937" opacity="0.05"/>
</svg>
